<svg width="242" height="134" viewBox="0 0 242 134" fill="none" xmlns="http://www.w3.org/2000/svg">
<g clip-path="url(#clip0_68_2)">
<rect width="242" height="134" fill="white"/>
<path d="M17 126C17 126.552 17.4477 127 18 127C18.5523 127 19 126.552 19 126L17 126ZM18.7071 5.29289C18.3166 4.90236 17.6834 4.90236 17.2929 5.29289L10.9289 11.6568C10.5384 12.0474 10.5384 12.6805 10.9289 13.0711C11.3195 13.4616 11.9526 13.4616 12.3431 13.0711L18 7.41421L23.6568 13.0711C24.0474 13.4616 24.6805 13.4616 25.0711 13.0711C25.4616 12.6805 25.4616 12.0474 25.0711 11.6568L18.7071 5.29289ZM19 126L19 5.99999L17 5.99999L17 126L19 126Z" fill="black"/>
<path d="M18 125C17.4477 125 17 125.448 17 126C17 126.552 17.4477 127 18 127V125ZM238.707 126.707C239.098 126.317 239.098 125.683 238.707 125.293L232.343 118.929C231.953 118.538 231.319 118.538 230.929 118.929C230.538 119.319 230.538 119.953 230.929 120.343L236.586 126L230.929 131.657C230.538 132.047 230.538 132.681 230.929 133.071C231.319 133.462 231.953 133.462 232.343 133.071L238.707 126.707ZM18 127H238V125H18V127Z" fill="black"/>
<path d="M12.3554 114.817C12.3554 116.19 11.9734 117.515 11.2094 118.792C10.4454 120.069 9.46051 121.09 8.25482 121.854C7.04913 122.618 5.81359 123 4.54821 123C3.39027 123 2.39945 122.66 1.57576 121.979C0.752066 121.299 0.232782 120.308 0.0179063 119.007C0.00596878 118.911 0 118.655 0 118.237C0 117.019 0.286501 115.861 0.859504 114.763C1.43251 113.665 2.20248 112.692 3.16942 111.844C4.64968 110.615 6.1359 110 7.6281 110C8.08173 110 8.36823 110.006 8.4876 110.018C9.64555 110.185 10.5767 110.698 11.281 111.558C11.9853 112.417 12.3434 113.504 12.3554 114.817ZM10.511 114.083C10.511 113.02 10.2365 112.191 9.68733 111.594C9.1382 110.997 8.45179 110.698 7.6281 110.698C6.67309 110.698 5.7539 111.056 4.87052 111.773C3.91552 112.525 3.18733 113.581 2.68595 114.942C2.18457 116.303 1.92792 117.568 1.91598 118.738C1.91598 119.813 2.17264 120.666 2.68595 121.299C3.19927 121.932 3.87971 122.254 4.72727 122.266C5.80165 122.266 6.82231 121.794 7.78926 120.851C8.7562 119.908 9.49036 118.625 9.99174 117.001C10.3379 115.867 10.511 114.894 10.511 114.083Z" fill="black"/>
<path d="M95 126C95 126.552 95.4477 127 96 127C96.5523 127 97 126.552 97 126L95 126ZM96.7071 5.29289C96.3166 4.90236 95.6834 4.90236 95.2929 5.29289L88.9289 11.6568C88.5384 12.0474 88.5384 12.6805 88.9289 13.0711C89.3195 13.4616 89.9526 13.4616 90.3431 13.0711L96 7.41421L101.657 13.0711C102.047 13.4616 102.681 13.4616 103.071 13.0711C103.462 12.6805 103.462 12.0474 103.071 11.6568L96.7071 5.29289ZM97 126L97 5.99999L95 5.99999L95 126L97 126Z" fill="black"/>
<path d="M88.6257 114.3C88.6257 115.592 88.2662 116.839 87.5473 118.041C86.8285 119.242 85.9018 120.203 84.7673 120.922C83.6328 121.641 82.4702 122 81.2796 122C80.19 122 79.2577 121.68 78.4827 121.04C77.7076 120.399 77.219 119.467 77.0168 118.243C77.0056 118.153 77 117.911 77 117.518C77 116.373 77.2696 115.283 77.8087 114.25C78.3479 113.216 79.0724 112.301 79.9822 111.503C81.3751 110.346 82.7735 109.768 84.1776 109.768C84.6044 109.768 84.874 109.773 84.9863 109.785C86.0759 109.942 86.952 110.425 87.6147 111.234C88.2775 112.042 88.6144 113.065 88.6257 114.3ZM86.8902 113.609C86.8902 112.61 86.6319 111.829 86.1152 111.267C85.5985 110.706 84.9526 110.425 84.1776 110.425C83.279 110.425 82.4141 110.762 81.5829 111.436C80.6843 112.143 79.9991 113.138 79.5273 114.418C79.0556 115.699 78.8141 116.889 78.8028 117.99C78.8028 119.001 79.0443 119.804 79.5273 120.399C80.0103 120.995 80.6506 121.298 81.4481 121.309C82.459 121.309 83.4194 120.866 84.3292 119.978C85.2391 119.091 85.9299 117.883 86.4016 116.356C86.7274 115.289 86.8902 114.373 86.8902 113.609Z" fill="black"/>
<path d="M89.9542 114.159C89.9066 114.159 89.7994 114.135 89.6326 114.087C89.4658 114.039 89.3785 113.992 89.3705 113.944C89.3705 113.889 89.5889 112.967 90.0257 111.181C90.4625 109.394 90.7047 108.461 90.7523 108.381C90.8715 108.127 91.0779 108 91.3718 108C91.5306 108 91.6974 108.06 91.8721 108.179C92.0468 108.298 92.1342 108.473 92.1342 108.703C92.1342 108.743 92.1262 108.802 92.1103 108.882C92.1024 108.937 91.7569 109.823 91.074 111.538C90.391 113.253 90.0376 114.119 90.0138 114.135C89.99 114.151 89.9701 114.159 89.9542 114.159Z" fill="black"/>
<path d="M215.254 109.775C215.324 109.357 215.593 108.873 216.062 108.325C216.53 107.776 217.109 107.497 217.797 107.487C218.146 107.487 218.465 107.577 218.754 107.756C219.043 107.936 219.257 108.16 219.397 108.429C219.816 107.801 220.319 107.487 220.907 107.487C221.276 107.487 221.595 107.597 221.864 107.816C222.134 108.036 222.273 108.33 222.283 108.699C222.283 108.988 222.213 109.222 222.074 109.402C221.934 109.581 221.8 109.691 221.67 109.731C221.54 109.77 221.426 109.79 221.326 109.79C221.137 109.79 220.982 109.736 220.862 109.626C220.743 109.516 220.683 109.372 220.683 109.192C220.683 108.734 220.932 108.419 221.431 108.25C221.321 108.12 221.122 108.056 220.832 108.056C220.703 108.056 220.608 108.066 220.548 108.085C220.169 108.245 219.89 108.574 219.711 109.072C219.113 111.276 218.814 112.562 218.814 112.931C218.814 113.21 218.893 113.409 219.053 113.529C219.212 113.649 219.387 113.709 219.576 113.709C219.945 113.709 220.309 113.544 220.668 113.215C221.027 112.886 221.271 112.482 221.401 112.004C221.431 111.904 221.461 111.849 221.49 111.839C221.52 111.829 221.6 111.819 221.73 111.809H221.79C221.939 111.809 222.014 111.849 222.014 111.929C222.014 111.939 222.004 111.994 221.984 112.093C221.824 112.662 221.515 113.165 221.057 113.604C220.598 114.043 220.065 114.262 219.457 114.262C218.759 114.262 218.23 113.948 217.871 113.32C217.463 113.938 216.994 114.247 216.466 114.247H216.376C215.887 114.247 215.538 114.117 215.329 113.858C215.12 113.599 215.01 113.325 215 113.036C215 112.717 215.095 112.457 215.284 112.258C215.474 112.059 215.698 111.959 215.957 111.959C216.386 111.959 216.6 112.168 216.6 112.587C216.6 112.786 216.54 112.961 216.421 113.11C216.301 113.26 216.186 113.36 216.077 113.409C215.967 113.459 215.902 113.484 215.882 113.484L215.837 113.499C215.837 113.509 215.867 113.529 215.927 113.559C215.987 113.589 216.067 113.624 216.166 113.664C216.266 113.704 216.361 113.719 216.451 113.709C216.81 113.709 217.119 113.484 217.378 113.036C217.468 112.876 217.582 112.537 217.722 112.019C217.861 111.5 218.001 110.962 218.141 110.403C218.28 109.845 218.36 109.516 218.38 109.416C218.43 109.147 218.455 108.953 218.455 108.833C218.455 108.554 218.38 108.355 218.23 108.235C218.081 108.115 217.911 108.056 217.722 108.056C217.323 108.056 216.949 108.215 216.6 108.534C216.251 108.853 216.007 109.262 215.867 109.76C215.847 109.85 215.823 109.9 215.793 109.91C215.763 109.92 215.683 109.93 215.553 109.94H215.344C215.284 109.88 215.254 109.825 215.254 109.775Z" fill="black"/>
<path d="M224.197 113.574C224.197 113.574 224.197 113.449 224.197 113.2C224.197 112.951 224.277 112.736 224.437 112.557C224.596 112.378 224.81 112.288 225.08 112.288C225.359 112.288 225.608 112.412 225.827 112.662C226.047 112.911 226.161 113.35 226.171 113.978C226.171 114.327 226.127 114.666 226.037 114.995C225.947 115.324 225.842 115.608 225.723 115.847C225.603 116.086 225.473 116.291 225.334 116.46C225.194 116.63 225.075 116.764 224.975 116.864C224.875 116.964 224.81 117.009 224.781 116.999C224.741 116.999 224.676 116.954 224.586 116.864C224.496 116.774 224.452 116.71 224.452 116.67C224.452 116.63 224.506 116.55 224.616 116.43C224.726 116.311 224.85 116.161 224.99 115.982C225.13 115.802 225.259 115.553 225.379 115.234C225.498 114.915 225.578 114.551 225.618 114.142V113.963L225.603 113.978C225.583 113.988 225.558 113.998 225.528 114.008C225.498 114.018 225.468 114.033 225.439 114.053C225.409 114.072 225.364 114.082 225.304 114.082C225.244 114.082 225.184 114.087 225.125 114.097C224.855 114.097 224.636 114.013 224.467 113.843L224.197 113.574Z" fill="black"/>
<path d="M230.459 109.775C230.529 109.357 230.798 108.873 231.267 108.325C231.735 107.776 232.313 107.497 233.001 107.487C233.35 107.487 233.669 107.577 233.958 107.756C234.248 107.936 234.462 108.16 234.601 108.429C235.02 107.801 235.524 107.487 236.112 107.487C236.481 107.487 236.8 107.597 237.069 107.816C237.338 108.036 237.478 108.33 237.488 108.699C237.488 108.988 237.418 109.222 237.278 109.402C237.139 109.581 237.004 109.691 236.875 109.731C236.745 109.77 236.63 109.79 236.531 109.79C236.341 109.79 236.187 109.736 236.067 109.626C235.947 109.516 235.888 109.372 235.888 109.192C235.888 108.734 236.137 108.419 236.635 108.25C236.526 108.12 236.326 108.056 236.037 108.056C235.908 108.056 235.813 108.066 235.753 108.085C235.374 108.245 235.095 108.574 234.916 109.072C234.317 111.276 234.018 112.562 234.018 112.931C234.018 113.21 234.098 113.409 234.258 113.529C234.417 113.649 234.592 113.709 234.781 113.709C235.15 113.709 235.514 113.544 235.873 113.215C236.232 112.886 236.476 112.482 236.605 112.004C236.635 111.904 236.665 111.849 236.695 111.839C236.725 111.829 236.805 111.819 236.934 111.809H236.994C237.144 111.809 237.219 111.849 237.219 111.929C237.219 111.939 237.209 111.994 237.189 112.093C237.029 112.662 236.72 113.165 236.261 113.604C235.803 114.043 235.269 114.262 234.661 114.262C233.963 114.262 233.435 113.948 233.076 113.32C232.667 113.938 232.199 114.247 231.67 114.247H231.581C231.092 114.247 230.743 114.117 230.534 113.858C230.324 113.599 230.215 113.325 230.205 113.036C230.205 112.717 230.299 112.457 230.489 112.258C230.678 112.059 230.903 111.959 231.162 111.959C231.591 111.959 231.805 112.168 231.805 112.587C231.805 112.786 231.745 112.961 231.625 113.11C231.506 113.26 231.391 113.36 231.281 113.409C231.172 113.459 231.107 113.484 231.087 113.484L231.042 113.499C231.042 113.509 231.072 113.529 231.132 113.559C231.192 113.589 231.271 113.624 231.371 113.664C231.471 113.704 231.566 113.719 231.655 113.709C232.014 113.709 232.323 113.484 232.583 113.036C232.672 112.876 232.787 112.537 232.927 112.019C233.066 111.5 233.206 110.962 233.345 110.403C233.485 109.845 233.565 109.516 233.585 109.416C233.634 109.147 233.659 108.953 233.659 108.833C233.659 108.554 233.585 108.355 233.435 108.235C233.285 108.115 233.116 108.056 232.927 108.056C232.528 108.056 232.154 108.215 231.805 108.534C231.456 108.853 231.212 109.262 231.072 109.76C231.052 109.85 231.027 109.9 230.997 109.91C230.967 109.92 230.888 109.93 230.758 109.94H230.549C230.489 109.88 230.459 109.825 230.459 109.775Z" fill="black"/>
<path d="M239.071 107.466C239.029 107.466 238.933 107.445 238.785 107.403C238.637 107.361 238.56 107.318 238.553 107.276C238.553 107.227 238.747 106.409 239.134 104.823C239.522 103.237 239.737 102.409 239.779 102.338C239.885 102.113 240.068 102 240.329 102C240.47 102 240.618 102.053 240.773 102.159C240.928 102.264 241.006 102.419 241.006 102.624C241.006 102.659 240.999 102.712 240.985 102.782C240.978 102.832 240.671 103.618 240.065 105.14C239.459 106.663 239.145 107.431 239.124 107.445C239.103 107.459 239.085 107.466 239.071 107.466Z" fill="black"/>
<path d="M136.884 67.8839C137.372 67.3957 137.372 66.6043 136.884 66.1161L128.929 58.1612C128.441 57.673 127.649 57.673 127.161 58.1612C126.673 58.6493 126.673 59.4408 127.161 59.9289L134.232 67L127.161 74.0711C126.673 74.5592 126.673 75.3507 127.161 75.8388C127.649 76.327 128.441 76.327 128.929 75.8388L136.884 67.8839ZM96 68.25H136V65.75H96V68.25Z" fill="black"/>
<path d="M107 8.75083C107 8.59434 107.084 8.32607 107.251 7.94603C107.419 7.56599 107.687 7.16918 108.056 6.7556C108.425 6.34203 108.839 6.14083 109.297 6.152C109.755 6.152 110.124 6.28055 110.404 6.53764C110.683 6.79472 110.828 7.15241 110.84 7.6107C110.817 7.82308 110.8 7.94044 110.789 7.9628C110.789 7.99633 110.7 8.25342 110.521 8.73406C110.342 9.2147 110.158 9.75682 109.968 10.3604C109.778 10.964 109.688 11.4447 109.699 11.8024C109.699 12.283 109.778 12.6183 109.934 12.8083C110.091 12.9984 110.325 13.099 110.638 13.1101C110.895 13.1101 111.136 13.0487 111.359 12.9257C111.583 12.8028 111.756 12.6742 111.879 12.5401C112.002 12.4059 112.153 12.2215 112.332 11.9868C112.332 11.9756 112.36 11.8638 112.416 11.6515C112.472 11.4391 112.55 11.1093 112.65 10.6622C112.751 10.2151 112.857 9.80154 112.969 9.42149C113.394 7.74483 113.628 6.86738 113.673 6.78913C113.818 6.48734 114.059 6.33644 114.394 6.33644C114.539 6.33644 114.657 6.37556 114.746 6.4538C114.836 6.53205 114.897 6.59911 114.931 6.655C114.964 6.71089 114.975 6.76119 114.964 6.8059C114.964 6.95121 114.69 8.12487 114.143 10.3269C113.595 12.5289 113.282 13.7361 113.204 13.9485C112.891 14.8762 112.349 15.614 111.577 16.1617C110.806 16.7094 110.035 16.9888 109.263 17C108.76 17 108.319 16.877 107.939 16.6311C107.559 16.3852 107.369 16.0164 107.369 15.5245C107.369 15.2786 107.408 15.0718 107.486 14.9042C107.564 14.7365 107.671 14.6136 107.805 14.5353C107.939 14.4571 108.051 14.4012 108.14 14.3676C108.23 14.3341 108.325 14.3173 108.425 14.3173C108.917 14.3173 109.163 14.5521 109.163 15.0215C109.163 15.2451 109.096 15.4407 108.962 15.6084C108.828 15.776 108.699 15.8878 108.576 15.9437C108.453 15.9996 108.38 16.0275 108.358 16.0275L108.308 16.0443C108.33 16.1002 108.436 16.1673 108.626 16.2455C108.816 16.3237 109.006 16.3629 109.196 16.3629H109.331C109.521 16.3629 109.666 16.3517 109.766 16.3293C110.135 16.2287 110.476 16.0164 110.789 15.6922C111.102 15.368 111.343 15.0215 111.51 14.6527C111.678 14.2838 111.806 13.9708 111.896 13.7137C111.985 13.4567 112.03 13.289 112.03 13.2107L111.929 13.2778C111.862 13.3225 111.756 13.384 111.611 13.4622C111.466 13.5405 111.32 13.6076 111.175 13.6634C110.951 13.7193 110.733 13.7473 110.521 13.7473C110.007 13.7473 109.554 13.6243 109.163 13.3784C108.772 13.1325 108.515 12.7357 108.392 12.188C108.38 12.1097 108.375 11.9365 108.375 11.6682C108.375 11.0311 108.57 10.1983 108.962 9.16999C109.353 8.14164 109.549 7.48774 109.549 7.2083C109.549 7.19712 109.549 7.18594 109.549 7.17477C109.549 7.07417 109.549 7.0071 109.549 6.97357C109.549 6.94003 109.526 6.90091 109.481 6.8562C109.437 6.81149 109.375 6.78913 109.297 6.78913H109.23C108.973 6.78913 108.738 6.89532 108.526 7.1077C108.313 7.32008 108.146 7.54922 108.023 7.79513C107.9 8.04104 107.805 8.27577 107.738 8.49933C107.671 8.72288 107.626 8.84584 107.604 8.86819C107.581 8.89055 107.492 8.90173 107.335 8.90173H107.101C107.034 8.83466 107 8.78436 107 8.75083Z" fill="black"/>
<path d="M115.8 6.12851C115.753 6.12851 115.646 6.1048 115.48 6.05739C115.314 6.00997 115.227 5.96255 115.219 5.91514C115.219 5.85982 115.437 4.94311 115.871 3.16501C116.306 1.38691 116.547 0.45835 116.594 0.379323C116.713 0.126438 116.918 -4.82798e-06 117.211 -4.82798e-06C117.369 -4.82798e-06 117.535 0.0592651 117.709 0.177805C117.882 0.296345 117.969 0.470204 117.969 0.699381C117.969 0.738894 117.961 0.798164 117.946 0.877191C117.938 0.932509 117.594 1.81366 116.914 3.52063C116.235 5.22761 115.883 6.089 115.859 6.1048C115.836 6.12061 115.816 6.12851 115.8 6.12851Z" fill="black"/>
<path d="M29 8.75083C29 8.59434 29.0838 8.32607 29.2515 7.94603C29.4192 7.56599 29.6874 7.16918 30.0563 6.7556C30.4252 6.34203 30.8387 6.14083 31.297 6.152C31.7553 6.152 32.1242 6.28055 32.4036 6.53764C32.6831 6.79472 32.8284 7.15241 32.8396 7.6107C32.8172 7.82308 32.8004 7.94044 32.7893 7.9628C32.7893 7.99633 32.6998 8.25342 32.521 8.73406C32.3421 9.2147 32.1577 9.75682 31.9677 10.3604C31.7777 10.964 31.6882 11.4447 31.6994 11.8024C31.6994 12.283 31.7777 12.6183 31.9342 12.8083C32.0906 12.9984 32.3254 13.099 32.6384 13.1101C32.8954 13.1101 33.1358 13.0487 33.3593 12.9257C33.5829 12.8028 33.7561 12.6742 33.8791 12.5401C34.002 12.4059 34.1529 12.2215 34.3318 11.9868C34.3318 11.9756 34.3597 11.8638 34.4156 11.6515C34.4715 11.4391 34.5497 11.1093 34.6503 10.6622C34.7509 10.2151 34.8571 9.80154 34.9689 9.42149C35.3937 7.74483 35.6284 6.86738 35.6731 6.78913C35.8184 6.48734 36.0587 6.33644 36.3941 6.33644C36.5394 6.33644 36.6568 6.37556 36.7462 6.4538C36.8356 6.53205 36.8971 6.59911 36.9306 6.655C36.9641 6.71089 36.9753 6.76119 36.9641 6.8059C36.9641 6.95121 36.6903 8.12487 36.1426 10.3269C35.5949 12.5289 35.2819 13.7361 35.2036 13.9485C34.8907 14.8762 34.3485 15.614 33.5773 16.1617C32.806 16.7094 32.0348 16.9888 31.2635 17C30.7605 17 30.319 16.877 29.9389 16.6311C29.5589 16.3852 29.3689 16.0164 29.3689 15.5245C29.3689 15.2786 29.408 15.0718 29.4862 14.9042C29.5645 14.7365 29.6707 14.6136 29.8048 14.5353C29.9389 14.4571 30.0507 14.4012 30.1401 14.3676C30.2296 14.3341 30.3246 14.3173 30.4252 14.3173C30.917 14.3173 31.1629 14.5521 31.1629 15.0215C31.1629 15.2451 31.0958 15.4407 30.9617 15.6084C30.8276 15.776 30.699 15.8878 30.5761 15.9437C30.4531 15.9996 30.3805 16.0275 30.3581 16.0275L30.3078 16.0443C30.3302 16.1002 30.4363 16.1673 30.6264 16.2455C30.8164 16.3237 31.0064 16.3629 31.1964 16.3629H31.3306C31.5206 16.3629 31.6659 16.3517 31.7665 16.3293C32.1354 16.2287 32.4763 16.0164 32.7893 15.6922C33.1022 15.368 33.3426 15.0215 33.5102 14.6527C33.6779 14.2838 33.8064 13.9708 33.8958 13.7137C33.9853 13.4567 34.03 13.289 34.03 13.2107L33.9294 13.2778C33.8623 13.3225 33.7561 13.384 33.6108 13.4622C33.4655 13.5405 33.3202 13.6076 33.1749 13.6634C32.9513 13.7193 32.7334 13.7473 32.521 13.7473C32.0068 13.7473 31.5541 13.6243 31.1629 13.3784C30.7717 13.1325 30.5146 12.7357 30.3916 12.188C30.3805 12.1097 30.3749 11.9365 30.3749 11.6682C30.3749 11.0311 30.5705 10.1983 30.9617 9.16999C31.3529 8.14164 31.5485 7.48774 31.5485 7.2083C31.5485 7.19712 31.5485 7.18594 31.5485 7.17477C31.5485 7.07417 31.5485 7.0071 31.5485 6.97357C31.5485 6.94003 31.5262 6.90091 31.4815 6.8562C31.4367 6.81149 31.3753 6.78913 31.297 6.78913H31.23C30.9729 6.78913 30.7381 6.89532 30.5258 7.1077C30.3134 7.32008 30.1457 7.54922 30.0228 7.79513C29.8998 8.04104 29.8048 8.27577 29.7377 8.49933C29.6707 8.72288 29.626 8.84584 29.6036 8.86819C29.5812 8.89055 29.4918 8.90173 29.3353 8.90173H29.1006C29.0335 8.83466 29 8.78436 29 8.75083Z" fill="black"/>
<path d="M139 47.4766C139 47.2025 139.081 46.9844 139.243 46.8224H139.449C139.972 46.8598 140.626 46.8785 141.411 46.8785C142.882 46.8785 143.748 46.8598 144.009 46.8224H144.196C144.271 46.8972 144.308 46.9533 144.308 46.9907C144.308 47.028 144.296 47.1402 144.271 47.3271C144.209 47.514 144.153 47.6324 144.103 47.6822H143.71C143.436 47.7072 143.249 47.7196 143.15 47.7196C142.788 47.7819 142.589 47.8754 142.551 48C142.551 48.0249 142.732 49.5888 143.093 52.6916C143.455 55.7944 143.642 57.3583 143.654 57.3832L145.019 55.1963C145.928 53.7383 146.838 52.2679 147.748 50.785C148.657 49.3022 149.125 48.5358 149.15 48.486C149.199 48.3988 149.224 48.3053 149.224 48.2056C149.224 47.9065 148.95 47.7321 148.402 47.6822C148.178 47.6822 148.065 47.6137 148.065 47.4766C148.065 47.4642 148.078 47.3832 148.103 47.2336C148.14 47.0592 148.178 46.947 148.215 46.8972C148.252 46.8474 148.333 46.8224 148.458 46.8224C148.483 46.8224 148.558 46.8224 148.682 46.8224C148.807 46.8224 149.019 46.8287 149.318 46.8411C149.617 46.8536 150.016 46.8598 150.514 46.8598C151.374 46.8598 151.916 46.8474 152.14 46.8224H152.271C152.358 46.9097 152.402 46.9782 152.402 47.028C152.402 47.2399 152.346 47.4393 152.234 47.6262C152.196 47.6636 152.09 47.6822 151.916 47.6822C151.754 47.6947 151.604 47.7072 151.467 47.7196C151.33 47.7321 151.199 47.7632 151.075 47.8131C150.95 47.8629 150.85 47.9065 150.776 47.9439C150.701 47.9813 150.626 48.0312 150.551 48.0935C150.477 48.1558 150.414 48.1994 150.364 48.2243C150.315 48.2492 150.265 48.3053 150.215 48.3925C150.165 48.4798 150.121 48.5234 150.084 48.5234L146.477 54.3178C144.234 57.9439 143.075 59.8006 143 59.8879C142.963 59.9128 142.919 59.9439 142.869 59.9813L142.533 60H142.402C142.178 60 142.065 59.9564 142.065 59.8692C142.028 59.7944 141.785 57.8006 141.336 53.8879C140.863 49.9252 140.62 47.9252 140.607 47.8879C140.545 47.7508 140.159 47.6822 139.449 47.6822H139.131C139.044 47.6199 139 47.5514 139 47.4766Z" fill="black"/>
<path d="M150.196 42.3738C150.196 42.2741 150.227 42.1869 150.29 42.1121C150.352 42.0374 150.445 42 150.57 42C150.657 42 150.732 42.0311 150.794 42.0935C150.857 42.1433 150.919 42.2617 150.981 42.4486C151.106 42.9097 151.361 43.2648 151.748 43.514C151.885 43.6012 151.953 43.7134 151.953 43.8505C151.953 43.9626 151.935 44.0374 151.897 44.0748C151.86 44.1121 151.773 44.1682 151.636 44.243C151.1 44.5171 150.632 44.9097 150.234 45.4206C150.209 45.4455 150.178 45.4829 150.14 45.5327C150.103 45.5825 150.072 45.6199 150.047 45.6449C150.022 45.6698 149.991 45.6822 149.953 45.6822C149.916 45.6822 149.872 45.6885 149.822 45.7009C149.735 45.7009 149.654 45.6698 149.579 45.6075C149.505 45.5452 149.461 45.4517 149.449 45.3271C149.449 45.0903 149.741 44.7227 150.327 44.2243H147.131L143.935 44.2056C143.773 44.0935 143.692 43.9751 143.692 43.8505C143.692 43.7632 143.773 43.6386 143.935 43.4766H150.645C150.346 43.0031 150.196 42.6355 150.196 42.3738Z" fill="black"/>
</g>
<defs>
<clipPath id="clip0_68_2">
<rect width="242" height="134" fill="white"/>
</clipPath>
</defs>
</svg>
